<?xml version="1.0" encoding="utf-8"?>
<!-- Generator: Adobe Illustrator 26.3.1, SVG Export Plug-In . SVG Version: 6.00 Build 0)  -->
<svg version="1.1" id="svg126" xmlns="http://www.w3.org/2000/svg" xmlns:xlink="http://www.w3.org/1999/xlink" x="0px" y="0px"
	 viewBox="0 0 319.2 93.5" style="enable-background:new 0 0 319.2 93.5;" xml:space="preserve">
<style type="text/css">
	.st0{fill:#FFFFFF;}
	.st1{fill:#813CFF;}
</style>
<g id="cube1">
	<path class="st0" d="M43.8,77.6L43.8,77.6c0,0.6-0.3,1.2-0.9,1.6L24.8,89.5v0l0,0l0-21.8l19-10.9L43.8,77.6L43.8,77.6z M23.5,65.4
		l-19-10.9l7.8-4.5l10.3-5.9c0.1-0.1,0.2-0.1,0.3-0.1c0,0,0.1,0,0.1-0.1c0,0,0,0,0,0c0.1,0,0.3-0.1,0.4-0.1h0c0.3,0,0.6,0.1,0.9,0.2
		l15.8,9.1l2.2,1.3L23.5,65.4L23.5,65.4z M22.2,89.5L22.2,89.5L22.2,89.5L4.1,79.1c-0.6-0.3-0.9-0.9-0.9-1.6V56.8l19,10.9v0h0l0,7.6
		L22.2,89.5L22.2,89.5z M44.2,52.5L25.7,41.9c-1.4-0.8-3.1-0.8-4.5,0L2.8,52.5c-1.4,0.8-2.2,2.3-2.2,3.8v21.2c0,1.6,0.9,3.1,2.2,3.8
		L21.3,92c0.7,0.4,1.5,0.6,2.2,0.6c0.8,0,1.5-0.2,2.2-0.6l18.5-10.6c1.4-0.8,2.2-2.3,2.2-3.8V56.3C46.4,54.8,45.6,53.3,44.2,52.5
		L44.2,52.5z"/>
	<g id="cube1-dotted">
		<path id="path95" class="st0" d="M23,52.6c0.7,0,1.3-0.6,1.3-1.3c0,0,0,0,0,0V48c0-0.7-0.6-1.3-1.3-1.3c-0.7,0-1.3,0.6-1.3,1.3
			c0,0,0,0,0,0v3.2C21.7,52,22.3,52.6,23,52.6C23,52.6,23,52.6,23,52.6"/>
		<path id="path97" class="st0" d="M23,61.1c0.7,0,1.3-0.6,1.3-1.3c0,0,0,0,0,0v-4c0-0.7-0.6-1.3-1.3-1.3c-0.7,0-1.3,0.6-1.3,1.3v4
			C21.7,60.5,22.3,61.1,23,61.1C23,61.1,23,61.1,23,61.1"/>
		<path id="path99" class="st0" d="M40.5,76l-2.8-1.6c-0.7-0.3-1.5-0.1-1.8,0.6c-0.3,0.6-0.1,1.4,0.5,1.7l2.8,1.6
			c0.2,0.1,0.4,0.2,0.7,0.2c0.5,0,0.9-0.3,1.2-0.7C41.3,77.2,41.1,76.4,40.5,76"/>
		<path id="path101" class="st0" d="M33.8,72.1l-3.5-2c-0.6-0.4-1.4-0.2-1.8,0.5c0,0,0,0,0,0c-0.4,0.6-0.1,1.5,0.5,1.8l3.5,2
			c0.6,0.4,1.4,0.1,1.8-0.5C34.7,73.3,34.4,72.5,33.8,72.1"/>
		<path id="path103" class="st0" d="M24.4,69.8l0.8,0.5c0.2,0.1,0.4,0.2,0.7,0.2c0.7,0,1.3-0.6,1.3-1.3c0-0.5-0.3-0.9-0.7-1.1
			l-0.8-0.5l-1.3,0.8L24.4,69.8z"/>
		<path id="path105" class="st0" d="M24.4,65.1v-0.9c0-0.7-0.6-1.3-1.3-1.4c-0.7,0-1.3,0.6-1.4,1.3c0,0,0,0,0,0.1v0.9l1.3,0.8
			L24.4,65.1z"/>
		<path id="path113" class="st0" d="M22.9,44c0,0,0.1,0,0.1-0.1C23,44,23,44,22.9,44"/>
	</g>
</g>
<g id="cube2">
	<path class="st0" d="M48.7,48.2V28l0,0v-1.5l1.3-0.8l0,0l17.6-10.1v0l0,0v20.7c0,0.6-0.3,1.2-0.9,1.5L48.7,48.2L48.7,48.2
		L48.7,48.2z M47.4,24.2l-19-10.9l18-10.4c0.3-0.2,0.6-0.2,0.9-0.2l0,0c0.3,0,0.6,0.1,0.9,0.2l18.1,10.4L47.4,24.2L47.4,24.2
		L47.4,24.2L47.4,24.2z M46.1,48.2L28,37.9c-0.6-0.3-0.9-0.9-0.9-1.6V15.6l0,0v0l19,10.9L46.1,48.2L46.1,48.2L46.1,48.2L46.1,48.2z
		 M68.1,40.2c1.4-0.8,2.2-2.3,2.2-3.8V15.1c0-1.6-0.9-3.1-2.2-3.8L49.6,0.6c-1.4-0.8-3.1-0.8-4.5,0L26.7,11.2
		c-1.4,0.8-2.2,2.3-2.2,3.8v21.2c0,1.6,0.9,3.1,2.2,3.8l18.5,10.6c0.7,0.4,1.4,0.6,2.2,0.6c0.8,0,1.5-0.2,2.2-0.6L68.1,40.2
		L68.1,40.2z"/>
	<g id="cube2-dotted">
		<path id="path91" class="st0" d="M49.7,28.9c0.7,0,1.3-0.6,1.3-1.3c0-0.5-0.3-0.9-0.7-1.1l-0.8-0.5l-1.3,0.8v1.6l0.8,0.4
			C49.2,28.8,49.5,28.9,49.7,28.9"/>
		<path id="path93" class="st0" d="M45.6,26.7l-1.4-0.8l-0.8,0.5c-0.6,0.4-0.9,1.2-0.5,1.8c0.2,0.4,0.7,0.7,1.1,0.7
			c0.2,0,0.5-0.1,0.7-0.2l0.8-0.5L45.6,26.7z"/>
		<path id="path77" class="st0" d="M57.7,30.6l-3.5-2c-0.6-0.4-1.4-0.2-1.8,0.5c0,0,0,0,0,0c-0.4,0.6-0.1,1.5,0.5,1.8l3.5,2
			c0.6,0.4,1.4,0.1,1.8-0.5c0,0,0,0,0,0C58.5,31.8,58.3,31,57.7,30.6"/>
		<path id="path71" class="st0" d="M32.3,32.9l-2.8,1.6c-0.6,0.4-0.9,1.2-0.5,1.8c0.4,0.6,1.2,0.9,1.8,0.5c0,0,0,0,0,0l2.8-1.6
			c0.6-0.4,0.9-1.2,0.5-1.8C33.7,32.7,32.9,32.5,32.3,32.9"/>
		<path id="path73" class="st0" d="M39.6,28.6l-3.5,2c-0.6,0.4-0.9,1.2-0.5,1.8c0.4,0.6,1.2,0.9,1.8,0.5c0,0,0,0,0,0l3.5-2
			c0.6-0.4,0.9-1.2,0.5-1.8C41,28.5,40.2,28.3,39.6,28.6C39.6,28.6,39.6,28.6,39.6,28.6"/>
		<path id="path75" class="st0" d="M64.3,34.5l-2.8-1.6c-0.6-0.4-1.5-0.1-1.8,0.5s-0.1,1.5,0.5,1.8l2.8,1.6c0.6,0.4,1.4,0.1,1.8-0.5
			c0,0,0,0,0,0C65.2,35.7,65,34.9,64.3,34.5"/>
	</g>
</g>
<path class="st1" d="M91.1,57.3V78c0,0.6-0.3,1.2-0.9,1.6L72.1,90l0-21.8L91.1,57.3L91.1,57.3z M70.8,65.9L51.8,55l2.4-1.4l15.7-9
	c0.6-0.3,1.2-0.3,1.8,0L89.8,55h0L70.8,65.9z M69.5,90l-18-10.4c-0.6-0.3-0.9-0.9-0.9-1.5V57.3l19,10.9L69.5,90L69.5,90L69.5,90
	L69.5,90z M91.5,53L73,42.3c-1.4-0.8-3.1-0.8-4.5,0L50.1,53c-1.4,0.8-2.2,2.3-2.2,3.8V78c0,1.6,0.9,3.1,2.2,3.8l18.5,10.6
	c0.7,0.4,1.5,0.6,2.2,0.6s1.5-0.2,2.2-0.6l18.5-10.6c1.4-0.8,2.2-2.3,2.2-3.8V56.8C93.7,55.2,92.9,53.8,91.5,53z"/>
<g id="cube3-dotted">
	<path id="path89" class="st0" d="M68.2,67.4l-0.8,0.5c-0.6,0.4-0.9,1.2-0.5,1.8c0.2,0.4,0.7,0.7,1.1,0.7c0.2,0,0.5-0.1,0.7-0.2
		l0.8-0.5v-1.5L68.2,67.4L68.2,67.4z"/>
	<path id="path81" class="st0" d="M70.8,61.1c0.7,0,1.3-0.6,1.3-1.3c0,0,0,0,0,0v-4c0-0.7-0.6-1.3-1.3-1.3s-1.3,0.6-1.3,1.3l0,0v4
		C69.5,60.5,70.1,61.1,70.8,61.1C70.8,61.1,70.8,61.1,70.8,61.1"/>
	<path id="path83" class="st0" d="M56.2,74.4L53.4,76c-0.6,0.4-0.9,1.2-0.5,1.8c0.2,0.4,0.7,0.7,1.1,0.7c0.2,0,0.5-0.1,0.7-0.2
		l2.8-1.6c0.6-0.4,0.9-1.2,0.5-1.8C57.6,74.2,56.8,74,56.2,74.4L56.2,74.4"/>
	<path id="path85" class="st0" d="M63.5,70.1l-3.5,2c-0.6,0.4-0.9,1.2-0.5,1.8c0.4,0.6,1.2,0.9,1.8,0.5l3.5-2
		c0.6-0.4,0.9-1.2,0.5-1.8C64.9,70,64.1,69.8,63.5,70.1C63.5,70.1,63.5,70.1,63.5,70.1"/>
	<path id="path87" class="st0" d="M72.1,65.1v-0.9c0-0.7-0.6-1.3-1.3-1.4s-1.3,0.6-1.4,1.3c0,0,0,0,0,0.1v0.9l1.3,0.8L72.1,65.1
		L72.1,65.1z"/>
	<path id="path79" class="st0" d="M70.8,52.6c0.7,0,1.3-0.6,1.3-1.3c0,0,0,0,0,0V48c0-0.7-0.6-1.3-1.3-1.4s-1.3,0.6-1.4,1.3
		c0,0,0,0,0,0.1v3.2C69.5,52,70.1,52.6,70.8,52.6C70.8,52.6,70.8,52.6,70.8,52.6"/>
</g>
<g id="cube4">
	<path class="st0" d="M117.9,62.5c0,0.6-0.3,1.2-0.9,1.6L99.2,74.3c0,0-0.1,0.1-0.2,0c-0.1,0-0.1-0.1-0.1-0.2V53.7
		c0-0.3,0-0.7-0.1-1l19.1-11V62.5z M97.6,50.4l-1.3-0.8L88.4,45l-9.4-5.4c0,0-0.1,0-0.1-0.2c0-0.1,0.1-0.1,0.1-0.1l17.8-10.2
		c0.6-0.3,1.2-0.3,1.8,0l18.1,10.4L98.9,49.6L97.6,50.4L97.6,50.4z M118.3,37.4L99.8,26.8c-1.4-0.8-3.1-0.8-4.5,0L77.6,37
		c-0.9,0.5-1.4,1.4-1.4,2.4c0,1,0.5,1.9,1.4,2.4l17.8,10.2c0.6,0.3,0.9,0.9,0.9,1.5v20.4c0,1,0.5,1.9,1.4,2.4
		c0.4,0.3,0.9,0.4,1.4,0.4c0.5,0,1-0.1,1.4-0.4l17.8-10.2c1.4-0.8,2.2-2.3,2.2-3.8V41.3C120.6,39.7,119.7,38.2,118.3,37.4
		L118.3,37.4z"/>
	<g id="cube4-dotted">
		<path id="path111" class="st0" d="M98.3,49c0-0.7-0.6-1.3-1.3-1.4s-1.3,0.6-1.4,1.3c0,0,0,0,0,0.1V50l1.3,0.8l1.3-0.8L98.3,49z"/>
		<path id="path109" class="st0" d="M97,45.9c0.7,0,1.3-0.6,1.3-1.3c0,0,0,0,0,0v-4c0-0.7-0.6-1.3-1.4-1.3c-0.7,0-1.3,0.6-1.3,1.3v4
			C95.7,45.3,96.3,45.9,97,45.9C97,45.9,97,45.9,97,45.9"/>
		<path id="path107" class="st0" d="M97,37.4c0.7,0,1.3-0.6,1.3-1.3c0,0,0,0,0,0v-3.2c0-0.7-0.6-1.3-1.3-1.4c-0.7,0-1.3,0.6-1.4,1.3
			c0,0,0,0,0,0.1v3.2C95.7,36.8,96.3,37.4,97,37.4C97,37.4,97,37.4,97,37.4"/>
	</g>
</g>
<g id="text">
	<path id="Datalab" class="st0" d="M151.9,13.7c3.8,0,6.7,1,8.8,3.1c2.1,2,3.1,4.9,3.1,8.7s-1,6.7-3.1,8.7c-2.1,2-5,3.1-8.8,3.1
		h-9.3V13.7H151.9z M151.6,33.3c2.3,0,4-0.7,5.2-2c1.2-1.3,1.7-3.3,1.7-5.8c0-2.5-0.6-4.5-1.7-5.8c-1.2-1.3-2.9-2-5.2-2h-4v15.7
		H151.6z M184.7,34.3c0.5,0,0.9,0,1.2-0.1l-0.4,3c-0.7,0.3-1.5,0.5-2.4,0.5c-2.3,0-3.7-0.9-4.2-2.7c-0.5,0.9-1.4,1.5-2.5,2
		c-1.1,0.5-2.4,0.7-4,0.7c-1.8,0-3.2-0.4-4.2-1.2s-1.5-1.9-1.5-3.4c0-2.9,2.4-4.8,7.1-5.6l4.4-0.8v-0.9c0-1-0.3-1.7-0.8-2.3
		c-0.5-0.6-1.3-0.8-2.3-0.8c-1.1,0-2,0.2-2.7,0.7c-0.7,0.5-1.2,1.2-1.5,2.3l-4-1.6c0.4-1.5,1.3-2.8,2.6-3.6c1.4-0.9,3.1-1.3,5.3-1.3
		c2.6,0,4.6,0.6,6.1,1.7c1.5,1.1,2.2,2.7,2.2,4.9V33c0,0.5,0.1,0.8,0.3,1C183.8,34.2,184.2,34.3,184.7,34.3L184.7,34.3z M174.1,34.3
		c1.1,0,2-0.3,2.9-0.8c0.9-0.5,1.3-1.2,1.3-2.1v-1.9l-3.9,0.9c-0.8,0.2-1.4,0.4-1.8,0.8c-0.4,0.3-0.6,0.8-0.6,1.3
		c0,0.6,0.2,1,0.5,1.3C172.9,34.2,173.4,34.3,174.1,34.3z M200,36.2c-0.6,0.5-1.3,0.8-2.2,1.1c-0.9,0.3-1.8,0.4-2.8,0.4
		c-4.1,0-6.1-1.8-6.1-5.4v-9.2h-3.3v-3.6h3.3v-4.1l5-1.4v5.5h5.9v3.6h-5.9v8.4c0,1.6,0.8,2.5,2.5,2.5c1.1,0,2-0.3,2.8-1L200,36.2
		L200,36.2z M220.1,34.3c0.5,0,0.9,0,1.2-0.1l-0.4,3c-0.7,0.3-1.5,0.5-2.4,0.5c-2.3,0-3.7-0.9-4.2-2.7c-0.5,0.9-1.4,1.5-2.5,2
		c-1.1,0.5-2.4,0.7-4,0.7c-1.8,0-3.2-0.4-4.2-1.2c-1-0.8-1.5-1.9-1.5-3.4c0-2.9,2.4-4.8,7.1-5.6l4.4-0.8v-0.9c0-1-0.3-1.7-0.8-2.3
		c-0.5-0.6-1.3-0.8-2.3-0.8c-1.1,0-2,0.2-2.7,0.7c-0.7,0.5-1.2,1.2-1.5,2.3l-4-1.6c0.4-1.5,1.3-2.8,2.6-3.6c1.4-0.9,3.1-1.3,5.3-1.3
		c2.6,0,4.6,0.6,6.1,1.7c1.5,1.1,2.2,2.7,2.2,4.9V33c0,0.5,0.1,0.8,0.3,1C219.3,34.2,219.7,34.3,220.1,34.3z M209.6,34.3
		c1.1,0,2-0.3,2.9-0.8c0.9-0.5,1.3-1.2,1.3-2.1v-1.9l-3.9,0.9c-0.8,0.2-1.4,0.4-1.8,0.8c-0.4,0.3-0.6,0.8-0.6,1.3
		c0,0.6,0.2,1,0.5,1.3C208.4,34.2,208.9,34.3,209.6,34.3z M229.3,31.6c0,0.9,0.1,1.4,0.4,1.8c0.3,0.3,0.7,0.5,1.4,0.5
		c0.4,0,0.8,0,1.1-0.1c0.3-0.1,0.7-0.2,1.1-0.3l-0.4,3.4c-0.4,0.2-0.9,0.4-1.5,0.6c-0.6,0.1-1.2,0.2-1.9,0.2c-1.8,0-3.1-0.4-3.9-1.3
		c-0.8-0.8-1.2-2.2-1.2-4V11.6h5V31.6z M252.8,34.3c0.5,0,0.9,0,1.2-0.1l-0.4,3c-0.7,0.3-1.5,0.5-2.4,0.5c-2.3,0-3.7-0.9-4.2-2.7
		c-0.5,0.9-1.4,1.5-2.5,2c-1.1,0.5-2.4,0.7-4,0.7c-1.8,0-3.2-0.4-4.2-1.2s-1.5-1.9-1.5-3.4c0-2.9,2.4-4.8,7.1-5.6l4.4-0.8v-0.9
		c0-1-0.3-1.7-0.8-2.3c-0.5-0.6-1.3-0.8-2.3-0.8c-1.1,0-2,0.2-2.7,0.7c-0.7,0.5-1.2,1.2-1.5,2.3l-4-1.6c0.4-1.5,1.3-2.8,2.6-3.6
		c1.4-0.9,3.1-1.3,5.3-1.3c2.6,0,4.6,0.6,6.1,1.7c1.5,1.1,2.2,2.7,2.2,4.9V33c0,0.5,0.1,0.8,0.3,1C252,34.2,252.3,34.3,252.8,34.3
		L252.8,34.3z M242.2,34.3c1.1,0,2-0.3,2.9-0.8c0.9-0.5,1.3-1.2,1.3-2.1v-1.9l-3.9,0.9c-0.8,0.2-1.4,0.4-1.8,0.8
		c-0.4,0.3-0.6,0.8-0.6,1.3c0,0.6,0.2,1,0.5,1.3C241,34.2,241.5,34.3,242.2,34.3L242.2,34.3z M267.8,19.1c2.4,0,4.3,0.8,5.7,2.5
		c1.4,1.6,2.1,3.9,2.1,6.8c0,2.9-0.7,5.2-2.1,6.8c-1.4,1.6-3.3,2.4-5.7,2.4c-1.4,0-2.7-0.3-3.7-1.1c-1.1-0.7-1.9-1.7-2.4-2.8
		l-0.2,3.5H257V11.6h5v10.7c0.5-1,1.3-1.8,2.3-2.4C265.3,19.4,266.4,19.1,267.8,19.1L267.8,19.1z M266.3,33.9c1.4,0,2.4-0.5,3.2-1.4
		c0.8-1,1.1-2.3,1.1-4.1c0-1.8-0.4-3.1-1.1-4.1c-0.8-1-1.8-1.4-3.2-1.4c-1.2,0-2.2,0.4-3,1.2c-0.8,0.8-1.2,2-1.3,3.5v1.6
		c0.1,1.5,0.5,2.7,1.3,3.5C264.1,33.5,265,33.9,266.3,33.9z"/>
	<path id="Rotterdam" class="st0" d="M150.9,61.6h-5.8v10h-2.9V47.5h9.1c2.5,0,4.4,0.6,5.9,1.9c1.5,1.3,2.2,3,2.2,5.2
		c0,1.7-0.5,3.2-1.4,4.3c-0.9,1.2-2.3,2-3.9,2.4l6.8,10.4h-3.5L150.9,61.6z M145.1,58.9h6.2c3.4,0,5.1-1.4,5.1-4.3
		c0-2.9-1.7-4.3-5.1-4.3h-6.2V58.9L145.1,58.9z M172.4,53c2.8,0,4.9,0.8,6.5,2.5c1.6,1.7,2.4,4,2.4,7s-0.8,5.3-2.4,7
		c-1.6,1.7-3.7,2.5-6.5,2.5c-2.8,0-4.9-0.8-6.5-2.5c-1.6-1.7-2.4-4-2.4-7c0-3,0.8-5.3,2.4-7C167.5,53.8,169.7,53,172.4,53L172.4,53z
		 M172.4,55.5c-1.9,0-3.3,0.6-4.4,1.9c-1,1.2-1.6,3-1.6,5.1c0,2.2,0.5,3.9,1.6,5.1c1,1.2,2.5,1.9,4.4,1.9s3.3-0.6,4.4-1.9
		c1-1.2,1.6-3,1.6-5.1c0-2.2-0.5-3.9-1.6-5.1C175.7,56.1,174.3,55.5,172.4,55.5z M197.5,70.4c-1.2,1.1-2.8,1.7-4.7,1.7
		c-1.5,0-2.7-0.4-3.6-1.2c-0.9-0.8-1.4-2-1.4-3.7V55.9H184v-2.5h3.7v-4.4l2.9-0.8v5.2h6.8v2.5h-6.8v10.7c0,0.9,0.2,1.5,0.8,2
		c0.5,0.5,1.2,0.7,2,0.7c1.2,0,2.2-0.5,3.1-1.4L197.5,70.4L197.5,70.4z M208.1,70.4c-1.2,1.1-2.8,1.7-4.7,1.7
		c-1.5,0-2.7-0.4-3.6-1.2c-0.9-0.8-1.4-2-1.4-3.7V55.9h-3.7v-2.5h3.7v-4.4l2.9-0.8v5.2h6.8v2.5h-6.8v10.7c0,0.9,0.2,1.5,0.8,2
		c0.5,0.5,1.2,0.7,2,0.7c1.2,0,2.2-0.5,3.1-1.4L208.1,70.4z M227.9,61.6c0,0.7,0,1.4-0.1,2.1H214c0.2,1.9,0.8,3.3,1.8,4.3
		c1.1,1,2.4,1.5,4.1,1.5c1.3,0,2.5-0.2,3.3-0.7c0.9-0.5,1.5-1.1,1.8-2l2.4,1.3c-0.7,1.3-1.7,2.3-2.9,3c-1.2,0.7-2.8,1-4.7,1
		c-2.8,0-4.9-0.8-6.5-2.5c-1.6-1.7-2.4-4-2.4-7c0-3,0.8-5.3,2.2-7c1.5-1.7,3.6-2.5,6.4-2.5c1.7,0,3.2,0.4,4.4,1.1
		c1.2,0.7,2.2,1.8,2.8,3.1C227.6,58.5,227.9,59.9,227.9,61.6L227.9,61.6z M219.8,55.5c-1.6,0-2.9,0.5-3.9,1.4c-1,1-1.6,2.3-1.8,4
		h11.1c-0.2-1.7-0.8-3-1.7-4C222.5,56,221.3,55.5,219.8,55.5L219.8,55.5z M242.1,53c0.9,0,1.5,0.1,2,0.4l-0.6,2.9
		c-0.6-0.3-1.4-0.5-2.3-0.5c-0.8,0-1.5,0.2-2.3,0.7c-0.7,0.5-1.4,1.1-1.8,2.1c-0.5,0.9-0.7,2-0.7,3.3v9.9h-2.9V53.3h2.4l0.4,3
		C237.3,54.1,239.3,53,242.1,53L242.1,53z M263.5,44.9v26.8h-2.6l-0.2-3.2c-0.5,1.1-1.4,1.9-2.5,2.6c-1.1,0.6-2.4,1-3.8,1
		c-2.6,0-4.6-0.8-6.1-2.5c-1.5-1.7-2.2-4-2.2-7c0-3,0.8-5.3,2.2-7c1.5-1.7,3.5-2.5,6.1-2.5c1.3,0,2.5,0.3,3.6,0.9s1.9,1.4,2.5,2.3
		V44.9L263.5,44.9z M254.8,69.5c1.8,0,3.2-0.6,4.2-1.8c1-1.2,1.6-2.9,1.6-4.9v-0.4c0-2.1-0.5-3.7-1.6-4.9c-1-1.2-2.4-1.8-4.2-1.8
		c-1.8,0-3.2,0.6-4.2,1.9c-1,1.3-1.5,3-1.5,5.1c0,2.1,0.5,3.8,1.5,5.1C251.6,68.8,253,69.5,254.8,69.5z M285.3,69.5
		c0.5,0,1-0.1,1.5-0.2l-0.2,2.3c-0.7,0.2-1.4,0.4-2.2,0.4c-1,0-1.7-0.2-2.2-0.6c-0.5-0.4-0.9-1.1-1-2.1c-0.6,0.9-1.4,1.5-2.5,2
		c-1.1,0.5-2.2,0.7-3.4,0.7c-1.8,0-3.3-0.4-4.5-1.3c-1.2-0.8-1.8-2.1-1.8-3.6c0-1.4,0.6-2.6,1.8-3.6c1.2-1,3-1.7,5.3-2.1l4.9-0.8v-1
		c0-1.2-0.4-2.2-1.1-2.9c-0.8-0.7-1.8-1.1-3.1-1.1c-1.2,0-2.3,0.3-3.2,0.9c-0.9,0.6-1.6,1.5-2.1,2.6l-2.2-1.6
		c0.5-1.4,1.4-2.5,2.7-3.3c1.3-0.8,2.9-1.2,4.7-1.2c2.2,0,3.9,0.5,5.2,1.6c1.3,1,2,2.6,2,4.7v9c0,0.4,0.1,0.8,0.3,1
		C284.4,69.4,284.8,69.5,285.3,69.5L285.3,69.5z M275.3,69.5c1.5,0,2.9-0.4,4-1.1c1.1-0.7,1.7-1.7,1.7-2.9V63l-4.1,0.8
		c-1.6,0.3-2.9,0.7-3.7,1.3c-0.8,0.6-1.2,1.3-1.2,2.1c0,0.8,0.3,1.3,0.9,1.7C273.5,69.3,274.3,69.5,275.3,69.5L275.3,69.5z
		 M312.2,53c1.2,0,2.4,0.2,3.4,0.8c1.1,0.5,1.9,1.3,2.6,2.3s1,2.3,1,3.9v11.7h-2.9V60.2c0-1.6-0.4-2.8-1.2-3.5
		c-0.8-0.8-1.8-1.2-3.1-1.2c-1,0-1.9,0.2-2.7,0.7c-0.8,0.5-1.5,1.2-2,2.1c-0.5,0.9-0.8,2-0.8,3.3v10h-2.9V60.2
		c0-1.6-0.4-2.8-1.2-3.5c-0.8-0.8-1.8-1.2-3.1-1.2c-0.9,0-1.7,0.2-2.6,0.7s-1.5,1.2-2,2.1c-0.5,1-0.8,2.1-0.8,3.6v9.8H291V53.3h2.6
		l0.2,2.9c0.6-1.1,1.5-1.9,2.5-2.4c1-0.5,2.2-0.8,3.3-0.8c1.3,0,2.6,0.3,3.7,0.9c1.1,0.6,2,1.5,2.6,2.7c0.5-1.2,1.4-2.1,2.6-2.7
		C309.7,53.3,311,53,312.2,53L312.2,53z"/>
</g>
</svg>
